<?xml version="1.0" encoding="utf-8"?>
<!-- Generator: Adobe Illustrator 21.0.0, SVG Export Plug-In . SVG Version: 6.00 Build 0)  -->
<svg version="1.1" id="vectorportal.com" xmlns="http://www.w3.org/2000/svg" xmlns:xlink="http://www.w3.org/1999/xlink" x="0px"
	 y="0px" viewBox="0 0 1500 600" style="enable-background:new 0 0 1500 600;" xml:space="preserve">
<g>
	<g>
		<path d="M855.7,301c0,0,25.4-24.8-22.7-86c-15.1,2.2-163.5,23.7-260.4-7.9C511,265.4,562,329.1,562,329.1L855.7,301z M789.9,224.2
			c12.7,11.4,29.2,33.9,36.5,76.9c-1.9-0.1-3.8,0-5.7,0.3c-8.7-49-31.2-68.8-43.7-76.3C781.2,225.9,785.7,225.7,789.9,224.2
			 M705.5,229.2c4.1,0.9,8.4,1,12.5-0.1c13.9,12,31.8,35,39.8,76.6c-1.9-0.1-3.9-0.1-5.8,0.2c-9.2-44.6-32.8-66.8-47.5-76.6
			C704.8,229.3,705.1,229.2,705.5,229.2 M621.7,223.1c4.5,1.2,9.3,1.3,13.8,0c14.6,14.2,35.9,42.1,44.4,89.1c-1.9-0.1-3.9,0-5.8,0.4
			C664.8,264.4,637.6,236,621.7,223.1 M553.5,238.2c1.6-1.4,3-3.1,4.4-5.1c1.1-1.6,2-3.2,2.7-4.7c11.1,15.1,29,45.4,38,91.9
			c-1.9-0.1-3.9,0-5.8,0.4C583.7,277.7,565.2,251.3,553.5,238.2 M744.5,208.7c15.3-16.3,36.6-29.7,60.3-22.1
			c72.9,23.2,62,110.2,107.8,162.4c27.7,31.6,59.4,52.6,104.1,53.7c46.3,1.1,123.3-36.4,117.3-131.9c0,0-76.2,5.2-104.8,16
			c3.6,9.1-1.2,21.3-21.8,18.2c-39.7-6.1-65.2-69.4-77-90.8c-23.9-43.7-55-120.5-152-119c-75.3,1.2-142.2,106-129.4,112
			C676.4,218.4,744.5,208.7,744.5,208.7 M1036,292.6c17.7,6.6,54,18,90.4,16.4c-2.2,4.3-3.1,8.6-3,12.7c-36.9,0-72.2-15.1-89.5-23.7
			C1034.9,296.2,1035.5,294.4,1036,292.6 M968.6,385.4c-3.4-2.4-7.3-4.1-11.3-4.9c4.8-37.1,18.8-66.1,26.5-79.9c1.9,1.1,4,2,6.1,2.7
			C983.5,317.4,971.9,347.5,968.6,385.4 M1012,311.8c1.7-0.2,3.3-0.6,4.9-1.2c6.1,18.6,20.7,55.1,45.6,74.5
			c-3.2,1.3-6.2,3.3-8.9,6.1C1028.8,369.4,1016.3,331.3,1012,311.8 M952.9,262.3c-11.3,13.8-35.5,45.3-45.8,71.5
			c-1.6-3.3-3.9-6.2-6.6-8.7c18.5-33.7,39.7-55.7,50.1-65.6C951.4,260.4,952.1,261.4,952.9,262.3 M919.3,201.9
			c-18.2,16.2-36.5,42.3-45.8,56.2c-0.5-4.2-2.1-8.1-4.4-11.5c9.9-12.6,29.7-36.5,47.1-50.2C917,198.3,918,200.2,919.3,201.9
			 M874.4,135.1c1.5,2.1,3.3,4.1,5.3,5.8c-25,23.8-37.3,46.7-42.5,58.3c-3-3-6.6-5.4-10.5-7C834,179,849.4,155.6,874.4,135.1
			 M774.6,101.3c3.7,0.7,7.5,0.6,11.2-0.4c-3.4,32.3,0.7,60.1,4.7,77.6c-1.8-0.1-3.5,0-5.3,0.2C780.3,160.4,774.3,132,774.6,101.3
			 M687.9,148.6c2.7-1.9,5.2-4.3,7.4-7.5c0.5-0.6,0.8-1.3,1.2-2c23.2,26.6,45.7,43.1,59.6,51.9c-1.9,1.6-3.8,3.5-5.5,5.8
			C735.1,189.1,711.4,174.4,687.9,148.6 M945.5,223.3c47-39.2,112.9-64.4,112.9-64.4c-26.9-17.8-56.7-22.8-79.6-22.1
			c-37.9,1.1-69.6,19.1-69.6,19.1S939,199.1,945.5,223.3 M946.5,146.5c3.3-0.8,6.5-2.3,9.4-4.6c15,8.3,33.5,21.6,44.7,40.5
			c-1.9,0.5-3.7,1.2-5.5,2.1C983.2,165.6,962,153.4,946.5,146.5 M874,296.3c-28.5,22-58.8,40.8-80.7,41.3
			c-23.5,0.6-40.1-6.4-51.6-16.6l-90.5,9.9c20.6,33.2,59,66.6,115.8,76.9c35.2,6.4,85.9-0.2,144.3-46.3
			C893.9,347.9,875.8,314.5,874,296.3 M725.3,391.2c-2.8-2.5-6-4.5-9.4-5.9c10.8-16.5,26.1-35.5,40.5-50.6c1.5,0.8,3,1.5,4.6,2.1
			C751.3,348,736,367.8,725.3,391.2 M807.4,404.7c-3.2-0.1-6.4,0.4-9.5,1.6c-6.1-23-3.4-48.9-0.3-65.6c1.9,0,3.8-0.2,5.7-0.6
			C800.9,355.7,799.6,381,807.4,404.7 M878.2,379.7c-3.1,1.2-6,3.1-8.8,5.7c-16-15.6-27.9-42.1-33.9-57.3c2-0.9,3.9-2.2,5.7-3.7
			C848.2,338.5,862.3,364.5,878.2,379.7 M1006.1,283.4c66.7-25.1,180.7-38.9,253.3-19.3c-8.3-61.4-37.3-100.6-37.3-100.6
			c-96.2-35.5-198.8,17.3-269.5,69.3C955.9,241.9,985.3,291.2,1006.1,283.4 M1150.7,155.5c5.1,1.5,10.5,1.6,15.7,0
			c23.7,23.9,48.2,58.5,75,100.3c-2.5-0.7-5.1-1.1-7.7-1.2C1204.6,210.5,1176.8,177.2,1150.7,155.5 M1081.4,169.1
			c3.8-0.5,7.6-1.8,11-4.2c22.7,19.4,46.3,48.2,71.3,84.7c-2.3,0-4.6,0.3-6.9,1C1130.7,214.5,1104.9,187.2,1081.4,169.1
			 M1026.6,192.5c3-1.2,5.8-3.1,8.4-5.7c18.8,17.7,38,41.8,58.4,71.3c-1.5,0.1-3.1,0.3-4.6,0.7
			C1067.9,230.7,1046.1,208.9,1026.6,192.5 M973.9,223.1c2.5-1.4,4.8-3.2,7-5.6c14.6,13.9,29.5,31.6,44.9,52.6
			c-1.6,0.5-3.2,1.1-4.8,2C1005.1,252.1,988.9,236,973.9,223.1"/>
	</g>
	<g>
		<path d="M373.6,124.8L282,251.3l77.2,134.6l-88.2,15.6l-57.8-82.1l-3,85.9l-79.1,3l6.1-291.2l88.6,4.9l-6.8,85.9l58.9-90.8
			L373.6,124.8z"/>
		<path d="M630.1,124.4l-13.7,257.7l-99.6,9.1l-53.2-138l-8.4,140.6h-85.5l6.8-269.5l95-4.6l65.8,136.8l3-129.2L630.1,124.4z"/>
	</g>
	<g>
		<path d="M1376.4,228.1c0,11.1-1.7,21-5,29.5c-3.3,8.6-7.9,16.1-13.7,22.5c-5.8,6.4-12.6,11.9-20.4,16.3c-7.8,4.5-16.1,8.1-25,10.9
			c-8.9,2.8-18.1,4.9-27.6,6.2c-9.5,1.3-18.8,2-28,2.1v80h-80c0-26.2,0.1-52.3,0.2-78.3c0.1-26,0.3-52.2,0.5-78.7
			c0.2-14,0.3-27.9,0.2-41.9c-0.1-14,0.2-28.1,0.9-42.3c14.7-4.4,29.3-7.6,44-9.8c14.7-2.2,29.8-3.3,45.3-3.3
			c8.8,0,17.6,0.7,26.5,2.1c8.8,1.4,17.3,3.7,25.3,6.8c8.1,3.1,15.6,7,22.5,11.6c6.9,4.6,12.9,10.2,18,16.6c5,6.4,9,13.7,11.9,21.9
			C1375,208.7,1376.4,217.9,1376.4,228.1z M1300.2,233.9c0-7.4-2.3-13.3-6.8-17.4c-4.5-4.2-10.4-6.3-17.6-6.3
			c-2.4,0-4.9,0.2-7.5,0.6c-2.6,0.4-5,0.9-7.3,1.5l-2.1,50.2c1.6,0.2,3.1,0.3,4.6,0.3s3,0,4.6,0c4.1,0,8.1-0.7,11.9-2.1
			c3.8-1.4,7.2-3.3,10.2-5.9c3-2.6,5.4-5.6,7.1-9.1C1299.3,242.2,1300.2,238.3,1300.2,233.9z"/>
	</g>
</g>
</svg>
